# xmcd
#
# Track frame offsets:
#	150
#	21235
#	39558
#	75482
#	94247
#	114978
#	133401
#	153581
#	173688
#
# Disc length: 2614 seconds
#
# Revision: 1
# Processed by: cddbd v1.5.2PL0 Copyright (c) Steve Scherf et al.
# Submitted via: EasyCDDAExtractor 6.0.0.1
#
DISCID=6d0a3409
DTITLE=Charlie Cruz - Como nunca
DYEAR=2004
DGENRE=Salsa
TTITLE0=Grita conmigo
TTITLE1=Ven devorame otra vez
TTITLE2=Un beso tuyo
TTITLE3=Mla
TTITLE4=Quemate conmigo
TTITLE5=Cuando baila miranda
TTITLE6=Curame
TTITLE7=La magia del amor
TTITLE8=Dame una chance
EXTD=
EXTT0=
EXTT1=
EXTT2=
EXTT3=
EXTT4=
EXTT5=
EXTT6=
EXTT7=
EXTT8=
PLAYORDER=
